<?xml version="1.0" standalone="no"?>
<!DOCTYPE svg PUBLIC "-//W3C//DTD SVG 20010904//EN"
 "http://www.w3.org/TR/2001/REC-SVG-20010904/DTD/svg10.dtd">
<svg version="1.0" xmlns="http://www.w3.org/2000/svg"
 width="700.000000pt" height="700.000000pt" viewBox="0 0 700.000000 700.000000"
 preserveAspectRatio="xMidYMid meet">
<metadata>
Created by potrace 1.14, written by Peter Selinger 2001-2017
</metadata>
<g transform="translate(0.000000,700.000000) scale(0.100000,-0.100000)"
fill="#000000" stroke="none">
<path d="M1198 6957 c-2 -7 -5 -89 -6 -182 l-2 -170 67 -29 c83 -36 376 -180
458 -226 210 -117 522 -319 630 -407 6 -5 39 -31 75 -58 36 -28 70 -54 76 -60
6 -5 42 -37 80 -69 89 -77 324 -312 395 -396 81 -94 191 -246 250 -342 63
-104 69 -110 59 -56 -4 23 -11 61 -14 83 -37 263 -175 563 -377 821 -84 108
-311 331 -443 437 -317 253 -739 485 -1138 628 -74 27 -107 34 -110 26z"/>
<path d="M5725 6943 c-193 -66 -511 -210 -645 -292 -19 -11 -42 -24 -50 -28
-74 -33 -334 -209 -490 -332 -86 -67 -325 -298 -392 -378 -132 -156 -252 -358
-327 -545 -31 -78 -77 -238 -86 -298 -2 -19 -9 -61 -13 -92 -7 -48 -7 -56 5
-47 7 6 13 16 13 21 0 16 134 212 224 328 109 140 380 414 528 533 26 21 53
43 60 50 16 15 178 135 268 198 82 58 319 208 385 243 28 15 70 39 95 53 78
44 392 198 453 223 l58 23 -3 179 c-2 99 -5 181 -8 182 -3 2 -36 -8 -75 -21z"/>
<path d="M623 6458 c0 -7 -4 -162 -7 -344 l-7 -332 38 -6 c98 -18 500 -139
578 -175 11 -5 36 -15 55 -22 190 -68 589 -259 787 -376 210 -123 476 -308
603 -418 105 -92 145 -129 239 -225 126 -128 250 -280 338 -418 36 -56 67
-101 68 -100 5 6 -17 159 -35 248 -20 93 -67 251 -97 320 -152 354 -353 626
-673 910 -136 122 -392 307 -553 401 -32 19 -84 49 -115 67 -101 59 -433 219
-572 275 -173 70 -399 149 -495 173 -160 39 -152 38 -152 22z"/>
<path d="M6243 6440 c-456 -123 -1015 -384 -1423 -664 -616 -424 -994 -942
-1105 -1516 -25 -131 -36 -220 -26 -220 3 0 12 14 19 30 18 40 90 145 169 247
248 320 612 627 1046 881 407 238 943 460 1350 558 l118 29 -7 320 c-4 176 -7
330 -7 342 1 27 -8 27 -134 -7z"/>
<path d="M296 5501 c-4 -6 -15 -370 -31 -1023 l-6 -248 28 -1 c15 0 37 -2 48
-3 11 -2 56 -6 100 -10 44 -5 82 -9 85 -11 3 -2 26 -6 50 -10 141 -20 361 -93
480 -158 129 -70 259 -181 332 -282 81 -112 156 -298 173 -425 4 -30 9 -64 11
-75 6 -29 5 -274 -1 -315 -3 -19 -6 -47 -7 -63 0 -15 -6 -31 -12 -36 -6 -5
-63 -26 -126 -46 -63 -20 -182 -59 -265 -85 -82 -27 -195 -63 -250 -80 -55
-18 -125 -40 -155 -50 -30 -10 -162 -53 -292 -95 -131 -42 -239 -79 -239 -83
-2 -11 -5 -116 -13 -407 -4 -148 -9 -320 -11 -382 -2 -61 -6 -221 -10 -355 -3
-133 -8 -306 -10 -383 -2 -77 -7 -246 -10 -375 -4 -129 -8 -286 -10 -348 -1
-61 1 -112 6 -112 8 0 29 8 109 41 25 10 106 42 180 70 74 28 286 110 470 181
358 140 356 139 560 217 74 28 144 55 155 60 11 5 70 28 130 51 374 143 831
322 840 330 5 4 13 8 18 8 7 1 190 70 252 97 43 18 259 100 330 125 33 12 72
26 87 32 l27 10 -3 926 c-2 510 -7 945 -10 967 -54 321 -118 523 -244 765
-127 245 -369 542 -577 706 -27 21 -54 44 -60 51 -17 20 -256 177 -365 240
-376 217 -910 423 -1340 518 -103 23 -267 55 -310 60 -99 12 -110 12 -114 6z"/>
<path d="M6657 5504 c-1 -1 -27 -5 -58 -8 -59 -7 -72 -9 -154 -26 -27 -6 -59
-12 -70 -14 -276 -56 -805 -223 -930 -293 -16 -9 -31 -16 -33 -15 -9 8 -317
-142 -462 -226 -171 -99 -287 -177 -450 -307 -62 -49 -282 -278 -342 -355
-253 -327 -404 -688 -464 -1110 -4 -25 -8 -460 -10 -966 l-3 -921 102 -38
c146 -54 245 -92 570 -221 158 -63 374 -148 480 -188 106 -41 316 -122 467
-181 292 -114 440 -171 800 -310 124 -48 340 -132 480 -186 140 -55 257 -99
261 -99 3 0 5 44 4 98 -3 120 -15 562 -20 737 -9 317 -20 723 -30 1110 -4 138
-8 288 -9 334 -2 61 -6 87 -17 93 -8 4 -135 46 -284 93 -148 48 -337 108 -420
135 -82 26 -256 82 -385 124 -189 61 -236 79 -236 93 -1 10 -4 45 -8 78 -7 61
-8 279 -1 325 2 14 6 48 10 75 10 68 58 222 89 282 115 229 315 396 596 499
151 56 403 105 573 112 l38 2 -6 233 c-12 471 -14 567 -20 797 -4 129 -9 237
-11 239 -5 5 -42 9 -47 5z"/>
</g>
</svg>
